<?xml version="1.0" standalone="no"?>
<!DOCTYPE svg PUBLIC "-//W3C//DTD SVG 20010904//EN"
 "http://www.w3.org/TR/2001/REC-SVG-20010904/DTD/svg10.dtd">
<svg version="1.0" xmlns="http://www.w3.org/2000/svg"
 width="920.000000pt" height="600.000000pt" viewBox="0 0 920.000000 600.000000"
 preserveAspectRatio="xMidYMid meet">
<metadata>
Created by potrace 1.16, written by Peter Selinger 2001-2019
</metadata>
<g transform="translate(0.000000,600.000000) scale(0.100000,-0.100000)"
fill="#000000" stroke="none">
<path d="M4994 4665 c-3 -6 5 -71 16 -145 11 -74 20 -143 20 -152 0 -17 -27
-18 -431 -18 l-432 0 7 53 c7 57 22 157 35 225 l9 44 -339 -4 c-187 -1 -339
-6 -339 -10 0 -6 294 -14 331 -10 10 2 8 -51 -2 -69 -6 -11 -4 -21 6 -29 16
-13 21 -35 6 -26 -12 8 -8 -18 5 -35 6 -8 10 -30 9 -49 -1 -19 2 -43 7 -52 5
-10 3 -18 -5 -21 -9 -4 -9 -7 0 -18 10 -10 9 -17 -5 -33 -17 -21 -17 -21 5 -2
16 13 20 23 13 31 -7 8 -4 17 10 30 11 10 20 14 20 10 0 -5 5 -4 12 3 20 20
32 13 13 -8 -10 -11 -21 -17 -26 -15 -4 3 -10 1 -13 -4 -4 -5 -1 -13 4 -16 8
-5 5 -14 -6 -26 -17 -18 -31 -59 -16 -44 4 4 7 10 7 14 0 3 10 17 22 30 12 13
20 28 17 32 -2 4 0 10 6 14 14 9 12 -29 -2 -43 -10 -10 -10 -17 0 -32 7 -11 8
-20 3 -20 -6 0 -15 8 -21 18 -9 14 -11 14 -7 1 3 -9 1 -21 -5 -27 -6 -6 -6
-12 2 -17 8 -5 8 -10 0 -20 -8 -9 -8 -15 0 -20 7 -4 7 -12 0 -25 -7 -13 -7
-21 0 -25 6 -4 8 -10 5 -15 -3 -5 -1 -11 5 -15 6 -4 8 -10 5 -15 -3 -5 -1 -11
4 -14 10 -7 9 20 -2 30 -4 4 -2 13 5 21 6 8 7 13 2 12 -20 -4 -24 2 -14 22 17
30 43 7 30 -26 -5 -14 -5 -27 -1 -30 7 -4 8 -40 1 -40 -1 0 -3 -11 -4 -24 l-3
-23 18 23 c10 13 15 27 13 31 -2 3 0 9 6 13 5 3 10 12 10 18 0 8 -3 8 -9 -2
-5 -8 -11 -9 -15 -3 -3 6 -2 13 4 17 5 3 10 12 10 18 0 7 -4 6 -10 -3 -8 -13
-10 -13 -10 2 0 9 4 20 10 23 13 8 40 -57 28 -71 -4 -6 -5 -19 -2 -28 4 -11 2
-16 -7 -14 -8 2 -12 -3 -10 -12 2 -8 4 -25 4 -37 1 -12 5 -19 9 -17 5 3 6 9 3
14 -3 4 3 14 12 21 14 12 15 11 9 -8 -13 -40 -15 -64 -5 -58 5 4 9 2 9 -4 0
-5 -4 -12 -9 -15 -11 -7 -33 19 -23 28 4 4 0 6 -8 4 -11 -2 -14 6 -13 32 2 35
2 35 -6 5 -6 -24 -3 -35 18 -57 13 -16 21 -28 16 -28 -5 0 -4 -5 3 -12 9 -9 9
-15 -1 -28 -6 -9 0 -3 16 14 33 36 36 22 5 -20 -20 -26 -29 -30 -70 -29 -50 1
-57 -7 -10 -12 88 -8 262 -9 262 -1 0 5 5 6 10 3 13 -8 155 -13 584 -19 175
-3 321 -7 323 -9 4 -4 -14 -48 -70 -167 -19 -41 -49 -109 -67 -150 -18 -41
-36 -79 -41 -85 -5 -5 -9 -17 -9 -26 0 -9 -7 -22 -15 -29 -8 -7 -12 -17 -8
-23 3 -5 1 -7 -5 -4 -12 8 -8 43 5 40 5 -1 9 8 8 20 -1 12 1 27 6 32 4 6 3 17
-2 25 -8 12 -9 11 -7 -4 2 -10 -3 -21 -11 -24 -9 -3 -11 0 -6 8 6 9 4 11 -5 5
-10 -6 -12 -4 -6 11 6 17 5 16 -13 -3 -12 -12 -29 -20 -40 -18 -15 3 -19 -1
-16 -17 3 -11 7 -23 11 -27 4 -3 5 1 2 10 -4 9 -1 16 7 16 10 0 11 -5 5 -17
-5 -10 -6 -20 -3 -24 3 -3 3 -6 0 -6 -4 0 -16 15 -27 33 -11 17 -20 25 -20 17
0 -9 8 -27 17 -40 13 -20 14 -22 2 -13 -9 7 -19 10 -23 6 -4 -4 -4 1 0 12 7
18 6 18 -9 6 -9 -7 -15 -17 -12 -21 3 -5 1 -12 -5 -15 -6 -4 -9 -2 -8 3 2 6
-1 10 -7 10 -5 0 -9 -5 -7 -11 2 -6 -5 -4 -16 6 -17 16 -20 16 -32 2 -10 -12
-16 -13 -28 -3 -13 11 -15 10 -9 -4 3 -10 1 -20 -6 -24 -7 -4 -9 -4 -5 1 4 4
3 17 -3 27 -8 15 -8 23 2 32 9 8 11 7 7 -4 -4 -12 1 -16 17 -16 15 0 21 5 18
13 -3 7 0 13 7 13 6 0 8 -5 4 -12 -4 -7 -3 -8 4 -4 17 10 15 26 -3 26 -9 0
-18 -7 -21 -15 -6 -14 -8 -13 -19 1 -8 12 -14 14 -19 5 -4 -6 -11 -9 -16 -6
-5 3 -12 1 -15 -5 -5 -8 -11 -7 -21 1 -9 7 -14 8 -12 3 2 -5 -2 -9 -7 -9 -5 0
-9 4 -7 9 2 5 -3 4 -11 -2 -8 -7 -16 -10 -18 -8 -2 2 -4 -6 -4 -18 0 -13 5
-23 11 -23 6 0 9 9 6 20 -4 15 -2 18 9 11 21 -13 32 -12 52 4 11 10 17 11 17
3 0 -6 -7 -14 -16 -18 -13 -5 -13 -7 -2 -14 10 -7 11 -9 0 -9 -7 0 -11 -4 -8
-9 3 -5 -2 -15 -12 -22 -15 -12 -16 -12 -6 1 9 13 10 21 5 47 0 4 -16 -8 -35
-26 -21 -21 -36 -29 -41 -22 -3 6 -11 8 -17 5 -7 -4 -8 -2 -4 4 4 7 3 12 -3
12 -5 0 -12 8 -14 18 -4 16 -5 16 -6 -1 0 -10 4 -28 10 -40 10 -22 10 -22 -6
-2 -17 22 -21 21 -48 -9 -10 -12 -16 -16 -13 -9 4 6 2 14 -4 18 -9 6 -14 -8
-11 -28 1 -5 -3 -6 -8 -2 -6 3 -7 13 -4 23 6 15 5 15 -10 3 -9 -7 -14 -18 -10
-25 3 -6 -4 -2 -17 9 l-23 20 7 -20 c5 -15 4 -17 -5 -8 -15 15 -3 33 21 28 14
-3 17 1 13 13 -4 10 -8 12 -11 4 -2 -7 -8 -9 -13 -6 -6 4 -6 10 0 18 8 9 7 13
-3 13 -8 0 -13 -8 -11 -19 2 -10 0 -18 -6 -18 -8 0 -13 13 -11 31 1 3 -6 6
-14 6 -8 0 -12 -3 -9 -5 9 -9 -16 -31 -30 -26 -19 8 -28 -13 -15 -33 9 -16 10
-15 5 5 -4 13 -2 22 4 22 6 0 10 -3 10 -7 -5 -29 2 -36 16 -17 15 19 15 19 9
-1 -6 -16 -4 -18 6 -8 10 10 11 15 1 27 -7 9 -8 16 -2 20 14 9 25 -33 12 -48
-6 -7 -7 -17 -3 -21 4 -5 0 -4 -8 1 -22 13 -33 12 -55 -5 -17 -14 -18 -14 -8
-1 8 10 9 21 3 30 -9 14 -11 13 -14 -9 0 -5 -5 -13 -9 -18 -5 -4 -7 -3 -5 2 2
6 -2 10 -7 10 -5 0 -9 -4 -7 -9 2 -5 -4 -4 -12 4 -15 11 -20 7 -17 -13 1 -5
-4 -5 -10 -1 -9 5 -10 1 -7 -14 4 -13 2 -20 -6 -19 -6 1 -10 -4 -8 -11 2 -9
-2 -11 -10 -5 -7 4 -17 8 -22 8 -5 0 -10 7 -12 15 -1 8 -6 24 -10 34 -6 15 -4
17 7 11 11 -7 12 -6 2 6 -10 12 -10 18 0 28 9 10 9 12 -3 9 -8 -2 -14 2 -13 8
1 6 -5 11 -12 11 -9 0 -11 -5 -6 -11 4 -6 7 -28 6 -49 -1 -20 1 -40 5 -42 7
-4 5 -92 -4 -225 -3 -40 1 -53 15 -44 6 4 5 12 -3 22 -10 14 -10 15 2 5 22
-20 21 -42 -1 -38 -13 3 -19 -2 -20 -16 -3 -40 -7 -64 -24 -149 0 -3 -10 -25
-21 -50 -37 -80 -71 -90 -111 -32 -23 35 -53 125 -53 162 0 11 -4 19 -10 15
-11 -7 -46 43 -36 52 3 3 0 13 -7 22 -10 14 -10 14 4 4 9 -7 20 -9 24 -5 5 4
5 1 1 -5 -4 -7 -3 -13 2 -13 6 0 9 11 8 24 -1 20 -4 22 -15 13 -12 -10 -13 -9
-6 3 10 16 14 90 6 87 -4 -1 -6 3 -6 8 0 6 2 9 5 8 8 -2 6 115 -3 123 -4 4 -1
14 5 22 19 23 18 39 -5 59 -13 11 -18 12 -11 3 14 -21 11 -46 -6 -42 -11 3
-11 0 -1 -12 7 -8 8 -17 2 -20 -5 -3 -8 -14 -6 -24 1 -9 -2 -23 -8 -30 -8 -10
-7 -12 3 -10 7 2 15 -3 18 -11 2 -8 0 -11 -5 -8 -6 4 -10 -3 -9 -16 1 -13 -4
-21 -12 -19 -9 2 -11 -2 -6 -10 5 -7 9 -17 11 -23 10 -46 13 -56 18 -64 3 -5
0 -13 -6 -17 -8 -4 -9 -3 -5 4 4 7 2 12 -4 12 -6 0 -8 5 -5 10 3 6 2 10 -4 10
-5 0 -8 8 -7 18 2 9 -1 28 -7 42 -5 14 -9 34 -8 45 3 16 0 17 -12 7 -12 -10
-14 -9 -13 9 0 12 -5 24 -13 27 -8 3 -11 0 -7 -7 5 -7 2 -10 -6 -9 -8 2 -13
-6 -12 -19 1 -13 -3 -20 -7 -17 -5 3 -7 9 -4 14 3 4 -2 13 -11 20 -13 12 -14
10 -10 -15 3 -15 2 -25 -1 -21 -4 4 -8 12 -9 19 -1 7 -5 19 -9 28 -3 10 -1 20
6 25 8 5 11 2 7 -8 -4 -8 -1 -15 7 -15 7 0 11 6 8 14 -3 7 0 13 7 13 6 0 9 -4
5 -9 -3 -5 0 -13 6 -17 8 -5 9 -3 4 6 -6 9 -4 11 5 5 9 -5 11 -4 6 4 -9 14 16
11 26 -4 4 -5 6 0 5 12 0 12 -3 20 -6 18 -2 -3 -14 3 -25 12 -17 15 -19 15 -8
1 9 -11 10 -18 2 -23 -5 -3 -10 -1 -10 6 0 8 -4 8 -15 -1 -8 -7 -15 -9 -15 -5
0 4 -7 2 -15 -5 -18 -15 -20 0 -2 20 10 12 9 12 -6 1 -11 -9 -15 -21 -12 -35
6 -20 5 -20 -8 -3 -17 21 -27 5 -19 -27 5 -20 5 -20 13 0 7 19 8 19 9 -1 l1
-20 9 20 c8 17 9 16 7 -7 -2 -15 -6 -31 -11 -35 -4 -4 -6 -3 -4 2 2 6 -1 10
-7 10 -5 0 -9 -4 -7 -8 1 -5 -2 -5 -8 -2 -6 4 -9 9 -6 12 3 3 -2 19 -10 35
-12 23 -18 27 -29 18 -10 -8 -16 -7 -24 7 -6 10 -11 13 -11 6 0 -6 -9 -10 -20
-8 -11 2 -18 0 -15 -5 3 -5 1 -11 -5 -15 -9 -5 -15 15 -11 38 1 5 -3 6 -8 3
-5 -3 -7 -15 -4 -25 3 -10 -1 -22 -8 -27 -9 -5 -11 -2 -6 9 3 9 -1 21 -11 28
-14 11 -15 11 -5 0 13 -15 6 -44 -8 -35 -5 3 -6 11 -2 17 5 9 3 9 -8 1 -8 -6
-22 -10 -31 -9 -10 2 -20 -1 -24 -6 -3 -5 -9 -7 -14 -4 -4 3 -6 -5 -2 -17 l5
-22 8 22 c11 29 22 28 14 0 -5 -21 -5 -21 9 2 13 22 20 21 17 -2 -1 -7 19 -5
34 3 6 4 18 5 28 4 9 -2 15 1 12 5 -3 5 4 7 15 5 11 -2 18 -1 16 4 -3 4 6 7
19 7 17 0 22 -5 20 -18 -2 -10 0 -16 6 -13 5 4 7 10 4 15 -3 4 2 13 10 20 17
14 20 3 6 -20 -6 -8 -7 -19 -3 -24 3 -6 9 0 13 14 6 22 7 21 6 -8 -1 -19 -6
-36 -11 -39 -5 -3 -6 -1 -3 4 4 6 -1 17 -10 24 -15 12 -16 12 -9 -6 5 -15 4
-17 -4 -9 -6 6 -12 19 -14 28 -2 18 -20 23 -22 6 -1 -5 -3 -13 -4 -17 -1 -5
-1 -12 0 -18 1 -5 -2 -6 -7 -2 -4 5 -8 13 -8 18 0 5 -4 9 -10 9 -5 0 -10 -4
-10 -9 0 -5 -4 -13 -8 -18 -5 -4 -7 -3 -5 2 1 6 -1 10 -7 10 -5 0 -9 -4 -7
-10 2 -5 -6 -1 -17 9 -23 21 -29 9 -8 -14 10 -12 9 -12 -4 -2 -9 6 -19 9 -23
5 -4 -4 -4 1 -1 12 7 20 6 20 -9 1 -12 -15 -16 -16 -16 -5 0 12 -2 12 -10 -1
-9 -13 -10 -13 -11 0 0 10 -3 9 -10 -5 -8 -17 -9 -17 -5 5 7 32 -8 60 -18 34
-6 -15 -9 -15 -34 7 l-27 24 24 -27 c13 -15 20 -32 16 -40 -4 -7 3 -2 14 12
11 14 21 20 21 13 0 -6 -8 -19 -17 -29 -10 -10 -18 -21 -18 -25 0 -4 -3 -10
-6 -14 -4 -3 -5 8 -4 24 3 38 -23 65 -32 33 -8 -33 -19 -18 -22 30 -3 66 -11
59 -11 -11 0 -34 3 -60 8 -58 4 3 7 -23 7 -56 0 -57 25 -283 75 -692 11 -88
20 -166 20 -173 0 -10 260 -12 1282 -10 l1283 3 7 55 c4 30 14 114 22 185 9
72 22 184 31 250 8 66 20 156 25 200 5 44 16 136 25 205 8 69 22 177 29 240 8
63 27 216 42 339 l28 223 -215 427 -214 426 -334 0 c-218 0 -335 -4 -337 -10z
m-1044 -28 c0 -5 -7 -7 -15 -3 -8 3 -15 0 -15 -7 0 -7 9 -13 19 -13 11 0 17 4
15 8 -3 4 2 5 11 1 12 -4 13 -8 5 -13 -8 -5 -7 -9 4 -13 15 -6 21 4 17 26 -1
5 3 6 8 3 5 -4 13 -1 17 5 5 9 -2 10 -24 6 -19 -4 -32 -2 -32 3 0 6 21 9 46 8
33 -1 41 -4 29 -10 -13 -8 -14 -12 -3 -26 11 -15 11 -15 -3 -5 -16 13 -29 8
-29 -9 0 -5 4 -7 9 -4 11 7 8 -20 -3 -31 -4 -4 -6 -3 -4 4 2 6 -1 10 -7 10 -5
-1 -8 -6 -6 -12 2 -5 4 -22 4 -37 0 -15 3 -25 8 -22 5 3 9 13 9 23 0 10 8 25
18 32 15 12 16 12 5 -1 -15 -20 -20 -55 -8 -55 6 0 9 4 7 8 -1 5 2 6 8 2 8 -5
8 -11 1 -19 -6 -7 -7 -17 -3 -22 4 -5 -3 0 -15 10 -27 23 -31 7 -5 -17 12 -11
22 -14 30 -7 9 7 9 7 2 -2 -7 -8 -5 -17 6 -29 10 -12 12 -19 4 -24 -7 -4 -1
-17 15 -37 23 -27 24 -33 12 -47 -8 -9 -13 -24 -12 -34 2 -9 -1 -15 -6 -11 -5
3 -9 -2 -9 -11 0 -9 4 -14 9 -11 5 4 8 -2 6 -11 -4 -26 6 -37 17 -22 7 10 8 8
3 -6 -8 -24 -8 -21 -6 -68 0 -22 5 -36 11 -32 5 3 6 13 3 23 -3 9 -3 14 1 11
9 -9 16 -49 8 -48 -19 3 -22 -3 -12 -20 7 -13 7 -22 0 -26 -5 -3 -10 -12 -10
-18 1 -7 10 -1 20 12 11 13 20 18 20 13 0 -6 -5 -14 -10 -17 -6 -4 -7 -11 -4
-17 4 -6 10 -5 15 3 6 10 9 10 9 2 0 -6 -4 -14 -9 -17 -10 -7 -7 -58 5 -77 5
-8 9 -25 9 -39 1 -14 5 -24 10 -22 6 2 9 11 7 20 -2 14 -1 15 7 2 13 -20 -6
-45 -24 -30 -9 8 -14 7 -18 -3 -3 -8 -16 -13 -29 -12 -12 1 -29 -3 -37 -9 -12
-9 -13 -8 -6 3 6 11 4 13 -8 8 -22 -8 -21 -2 3 31 13 18 18 35 14 46 -6 16 -8
17 -16 2 -5 -9 -14 -16 -20 -16 -6 0 -3 9 7 20 14 15 16 23 7 32 -7 7 -7 19
-1 35 11 30 3 48 -16 33 -9 -8 -14 -7 -18 5 -4 8 -1 14 6 12 7 -1 12 8 12 20
0 11 3 24 7 28 4 4 2 17 -4 28 -8 16 -8 22 1 25 17 6 13 20 -5 18 -9 0 -19 6
-22 14 -4 12 -3 13 10 2 13 -10 18 -9 28 3 7 9 10 18 6 22 -3 3 -6 0 -6 -8 -1
-10 -4 -9 -11 4 -6 9 -14 15 -20 12 -5 -4 -9 -2 -9 4 0 5 5 13 10 16 8 5 8 11
0 20 -8 9 -8 15 0 20 5 3 10 -2 10 -11 0 -10 2 -15 5 -12 4 3 3 18 -1 34 -7
26 -8 26 -16 9 -8 -19 -8 -19 -5 1 3 11 -1 21 -7 21 -7 0 -11 -16 -10 -39 1
-38 -9 -57 -20 -39 -4 5 -2 13 4 16 8 5 7 11 -1 21 -9 12 -9 20 1 39 7 13 10
31 7 39 -3 8 -2 18 2 21 5 3 7 14 4 25 -6 21 -6 21 -20 0 -11 -16 -18 -19 -26
-11 -8 8 -8 14 1 23 9 9 12 9 12 -2 0 -20 10 -7 20 29 6 22 6 29 -2 25 -7 -4
-8 -2 -4 5 4 6 0 24 -9 38 -10 14 -19 39 -22 56 -4 24 -2 29 12 23 10 -3 14
-2 10 5 -4 6 -13 8 -21 5 -9 -4 -18 3 -24 17 -9 22 -9 22 -8 -3 0 -14 -2 -35
-5 -47 -4 -16 -2 -20 9 -16 10 3 12 0 8 -10 -3 -8 -1 -18 5 -22 8 -4 8 -12 1
-25 -7 -13 -7 -21 0 -25 8 -5 7 -11 -1 -21 -7 -9 -8 -14 -3 -12 5 2 9 -1 9 -7
0 -5 -4 -9 -8 -7 -4 1 -3 -7 3 -17 7 -13 7 -22 0 -26 -11 -7 -12 -3 -14 55 0
21 -7 45 -13 51 -9 9 -10 16 -1 26 8 10 7 18 -5 31 -11 12 -13 22 -6 34 6 10
9 24 8 30 -4 31 2 38 31 36 17 -1 30 -6 30 -11z m-27 -56 c3 -13 1 -18 -9 -14
-7 2 -10 11 -7 19 7 19 10 18 16 -5z m143 -5 c0 -14 -3 -23 -7 -20 -6 3 -6 22
0 42 3 10 7 -2 7 -22z m-106 -91 c0 -5 -5 -3 -10 5 -8 13 -10 12 -10 -2 0 -10
5 -18 10 -18 6 0 10 -10 10 -21 0 -18 -2 -19 -15 -9 -8 7 -13 16 -10 20 3 5 1
11 -5 15 -7 4 -7 12 0 25 7 13 7 21 0 25 -5 3 -10 12 -10 18 0 7 9 -1 20 -18
11 -16 20 -34 20 -40z m126 -21 c1 -9 0 -13 -4 -10 -3 4 -7 14 -8 22 -1 9 0
13 4 10 3 -4 7 -14 8 -22z m4 -58 c-6 -6 -5 -15 3 -25 11 -14 10 -14 -6 -2
-12 10 -15 17 -8 24 7 7 5 17 -7 31 -17 21 -17 21 6 2 15 -13 19 -23 12 -30z
m134 -88 c-3 -4 -12 -4 -22 -1 -9 3 -14 3 -10 -2 4 -4 30 -9 58 -10 44 -2 49
0 38 13 -9 11 -3 9 14 -3 15 -11 26 -24 24 -30 -2 -5 0 -19 5 -30 l8 -20 1 20
c2 11 2 25 1 32 -2 16 16 26 24 12 4 -6 2 -16 -4 -22 -6 -6 -11 -18 -11 -26 0
-12 2 -12 13 2 12 16 39 18 54 3 4 -4 2 -6 -6 -4 -7 2 -15 -4 -16 -12 -2 -8
-7 -24 -11 -34 -6 -15 -4 -17 7 -11 8 4 11 5 7 0 -4 -4 1 -20 12 -35 19 -26
19 -28 2 -41 -15 -12 -15 -12 -5 1 9 12 8 19 -1 32 -7 10 -17 14 -21 10 -5 -4
-5 -2 -1 5 3 6 1 15 -5 18 -5 4 -7 14 -4 24 12 29 14 51 5 51 -12 0 -17 -21
-16 -70 1 -27 6 -45 13 -45 6 0 15 -4 20 -9 4 -5 3 -6 -4 -2 -7 4 -17 -2 -22
-13 -16 -29 -13 -39 4 -17 8 11 15 16 16 10 5 -46 5 -64 1 -59 -7 6 -42 -40
-43 -57 0 -7 -4 -4 -9 7 -8 19 -9 19 -9 -2 -1 -13 4 -23 9 -23 6 0 10 -8 10
-17 0 -15 2 -15 9 -4 5 8 7 20 4 28 -3 8 2 22 12 33 18 20 35 18 35 -3 0 -8
-3 -8 -9 2 -5 8 -11 9 -15 3 -3 -6 -2 -13 4 -17 6 -4 3 -16 -10 -32 -20 -26
-27 -48 -11 -39 5 3 14 0 20 -8 8 -10 8 -16 -3 -25 -8 -7 -12 -20 -9 -29 4
-13 3 -14 -5 -3 -8 11 -10 11 -15 0 -3 -8 -4 3 -2 24 3 22 0 35 -5 32 -6 -4
-11 -23 -11 -43 l-2 -37 -7 40 c-7 39 -7 39 -9 8 0 -18 -6 -33 -12 -33 -5 0
-8 4 -4 10 3 5 6 25 7 45 1 23 4 31 9 23 13 -19 11 0 -2 24 -6 11 -7 18 -2 15
4 -3 8 8 8 23 0 16 -4 28 -9 27 -5 -1 -11 5 -13 13 -4 13 -3 13 6 0 7 -10 9
-4 7 23 -2 20 0 35 3 33 7 -5 4 81 -4 102 -3 8 -1 20 4 26 5 6 5 20 0 31 l-8
20 0 -20 c-1 -16 -3 -17 -10 -6 -7 10 -5 19 6 26 14 11 14 12 -1 12 -9 0 -16
-5 -16 -11 0 -5 -6 -2 -13 9 -10 13 -16 15 -21 6 -4 -6 -11 -9 -16 -6 -4 3 -7
-3 -5 -12 1 -10 -3 -25 -9 -33 -10 -13 -9 -13 6 -1 10 7 16 17 13 21 -3 4 2
13 10 20 13 11 15 9 12 -8 -2 -12 -11 -30 -20 -40 -14 -15 -14 -19 -2 -19 8 0
12 3 10 7 -3 4 4 15 15 25 22 20 28 7 8 -14 -11 -10 -10 -12 1 -9 7 2 16 -3
18 -10 3 -8 -1 -10 -11 -6 -9 3 -16 1 -16 -4 0 -6 -9 -9 -19 -7 -26 5 -21 -18
12 -53 38 -39 34 -52 -5 -16 l-33 29 28 -31 c40 -44 33 -54 -10 -13 -21 18
-28 22 -15 8 29 -33 29 -48 0 -23 -21 17 -21 16 1 -9 14 -15 21 -27 16 -27 -5
0 -4 -5 3 -12 9 -9 9 -15 -1 -27 -9 -12 -9 -13 1 -7 6 4 12 4 13 -1 0 -4 2
-19 5 -32 4 -20 2 -22 -11 -11 -8 7 -13 16 -10 19 2 4 -3 8 -11 8 -11 0 -10
-5 6 -22 11 -12 17 -25 13 -29 -4 -3 -8 -14 -9 -23 -2 -12 0 -13 9 -4 7 7 12
15 13 19 2 17 17 42 25 42 6 0 5 -9 -1 -20 -7 -14 -7 -25 1 -38 17 -27 4 -68
-21 -68 -20 0 -24 7 -21 36 2 13 0 13 -8 1 -5 -8 -7 -20 -4 -27 5 -13 -21 -14
-33 -1 -4 4 -14 1 -23 -5 -10 -8 -9 -5 3 9 11 13 16 31 13 43 -3 11 -1 23 4
26 5 3 9 10 9 16 0 6 -7 5 -17 -3 -16 -12 -17 -12 -6 2 7 9 9 20 5 24 -4 5 0
5 8 0 12 -6 13 -5 3 6 -7 7 -13 18 -13 24 0 5 4 4 9 -4 6 -9 8 8 6 44 -2 34
-9 61 -17 66 -11 7 -11 9 1 9 9 0 10 4 4 13 -5 6 -9 40 -7 75 1 34 -2 65 -7
68 -5 3 -6 11 -2 17 4 7 8 15 9 20 1 4 2 9 3 11 0 3 10 4 20 3 11 0 18 -5 15
-9z m-119 -32 c0 -19 -3 -37 -6 -40 -4 -5 -4 62 0 72 4 10 7 -4 6 -32z m311
12 c5 4 5 3 1 -2 -12 -15 -34 -15 -34 0 0 9 4 11 12 4 7 -5 16 -6 21 -2z
m-459 -79 c-6 -10 -15 -15 -19 -12 -5 2 -4 11 2 18 8 9 8 15 0 20 -6 3 -8 11
-4 16 3 6 11 3 19 -7 9 -13 10 -23 2 -35z m43 26 c-7 -8 -9 -19 -5 -24 3 -6 2
-18 -3 -27 -8 -14 -10 -14 -22 1 -11 13 -10 19 9 39 11 12 18 26 14 31 -5 4
-2 5 5 1 10 -6 10 -11 2 -21z m320 -11 c0 -8 -19 -13 -24 -6 -3 5 1 9 9 9 8 0
15 -2 15 -3z m91 -17 c-10 -9 -11 -8 -5 6 3 10 9 15 12 12 3 -3 0 -11 -7 -18z
m-387 -13 c3 -8 2 -12 -4 -9 -6 3 -10 10 -10 16 0 14 7 11 14 -7z m91 -11 c-1
-10 5 -26 14 -37 9 -10 16 -32 16 -50 1 -19 6 -30 13 -28 17 3 15 -3 -5 -19
-10 -8 -14 -9 -10 -2 4 6 3 14 -1 17 -5 3 -8 18 -7 33 1 15 -6 37 -15 48 -14
17 -17 28 -11 50 3 14 9 3 6 -12z m29 1 c3 -8 2 -12 -4 -9 -6 3 -10 10 -10 16
0 14 7 11 14 -7z m167 -18 c2 -38 -6 -104 -16 -127 -3 -10 -2 -20 4 -24 6 -3
11 -16 11 -28 0 -17 -2 -19 -9 -7 -6 8 -8 17 -5 21 2 4 0 10 -5 14 -6 3 -8 -3
-6 -15 2 -11 -2 -23 -8 -26 -7 -4 -9 -4 -5 1 4 4 3 16 -2 25 -7 13 -5 21 5 30
8 7 12 16 9 21 -3 5 0 18 6 30 10 18 7 26 -21 55 -18 19 -30 34 -26 34 4 0 10
0 15 0 4 0 7 -4 7 -9 0 -5 3 -12 7 -16 3 -4 5 1 4 12 -4 23 0 30 19 30 8 0 16
-10 16 -21z m120 -69 c-6 -8 -8 -16 -5 -19 3 -3 1 -9 -4 -12 -6 -3 -9 0 -8 6
2 16 15 38 23 38 3 0 0 -6 -6 -13z m-161 -37 c0 -5 0 -12 0 -15 0 -14 -13 -8
-16 8 -1 9 2 17 7 17 5 0 9 -4 9 -10z m-76 -40 c-6 -6 -10 -3 -10 10 0 13 4
16 10 10 7 -7 7 -13 0 -20z m233 15 c0 -8 -4 -12 -9 -9 -5 3 -6 10 -3 15 9 13
12 11 12 -6z m-272 -52 c-1 -16 3 -35 9 -43 9 -13 9 -13 -5 -3 -12 10 -18 50
-10 71 4 10 8 -3 6 -25z m252 -20 c-16 -16 -15 -19 6 -43 l22 -25 -27 24 c-26
23 -27 26 -11 43 9 10 19 18 22 18 3 0 -2 -8 -12 -17z m-101 -27 c0 -14 -5
-21 -9 -17 -4 4 -5 15 -1 24 9 24 12 21 10 -7z m121 17 c-4 -3 -1 -13 6 -22
11 -14 10 -14 -5 -2 -16 12 -16 31 -1 31 4 0 3 -3 0 -7z m-19 -75 c-2 -7 2
-12 9 -13 23 0 22 -11 -1 -11 -21 0 -25 8 -17 34 3 8 11 0 9 -10z m937 -452
c20 -30 42 -107 52 -181 10 -77 10 -273 0 -348 -20 -148 -72 -241 -119 -216
-19 10 -54 77 -64 122 -26 120 -34 259 -22 394 19 221 89 327 153 229z m-419
-28 c4 4 2 -1 -5 -10 -16 -21 -32 -14 -25 10 5 15 5 15 -6 -1 -6 -9 -9 -21 -5
-26 3 -5 1 -12 -3 -15 -13 -8 -10 47 3 56 5 4 15 1 21 -7 6 -8 15 -11 20 -7z
m-199 -73 c0 -8 -4 -12 -9 -9 -5 3 -6 10 -3 15 9 13 12 11 12 -6z m-643 -111
c3 -8 2 -12 -4 -9 -6 3 -10 10 -10 16 0 14 7 11 14 -7z m26 -38 c0 5 5 2 10
-6 13 -20 13 -50 -1 -50 -5 0 -8 4 -5 8 2 4 0 14 -6 22 -8 12 -9 12 -4 -2 3
-10 1 -20 -4 -23 -6 -4 -9 -21 -9 -38 l2 -32 6 32 c5 26 9 30 21 23 8 -6 10
-10 3 -10 -6 0 -10 -8 -9 -17 2 -10 -3 -24 -11 -31 -14 -14 -18 -36 -5 -28 4
2 8 -11 8 -29 0 -35 -10 -38 -12 -4 -1 10 -3 22 -4 27 -2 4 -4 44 -4 89 -1 64
2 79 12 71 6 -6 12 -7 12 -2z m-294 -32 c0 -13 -2 -22 -5 -19 -3 3 -6 17 -7
31 0 13 2 22 5 19 3 -3 6 -17 7 -31z m0 -59 c-1 -8 -8 -21 -16 -28 -10 -10
-11 -9 -4 3 5 8 9 18 10 23 3 14 4 17 8 17 2 0 3 -7 2 -15z m-555 -23 c-4 -9
-7 -25 -6 -35 2 -9 0 -15 -5 -12 -5 3 -7 13 -5 23 2 9 4 25 4 35 1 10 6 15 11
12 6 -4 7 -13 1 -23z m555 -68 c3 -16 3 -26 -1 -23 -3 4 -7 16 -10 28 -2 11
-7 27 -11 34 -5 9 -4 9 5 1 6 -6 14 -24 17 -40z"/>
<path d="M3944 4567 c2 -13 13 -38 24 -56 11 -19 18 -40 15 -47 -3 -8 0 -27 5
-43 6 -16 7 -33 3 -37 -5 -5 -5 -20 0 -34 6 -23 7 -23 8 -3 1 12 6 25 11 28 7
4 7 11 2 18 -10 13 -8 45 4 55 4 4 4 -1 1 -10 -7 -20 9 -35 16 -16 4 9 6 10 6
1 1 -6 -4 -15 -10 -19 -7 -4 0 -18 18 -37 15 -17 20 -26 11 -19 -14 11 -18 10
-28 -5 -10 -16 -11 -16 -6 -1 3 10 1 20 -4 23 -15 9 -12 -18 6 -55 14 -26 15
-37 5 -52 -12 -20 -6 -42 9 -33 13 8 24 -15 12 -27 -6 -6 -8 -16 -6 -23 3 -7
1 -16 -5 -20 -8 -4 -8 -12 -1 -25 6 -11 6 -21 1 -24 -13 -8 4 -62 18 -58 12 2
15 -11 4 -22 -13 -13 -12 -45 2 -73 8 -15 15 -21 16 -13 0 8 2 25 3 38 2 12
-1 22 -6 22 -5 0 -6 5 -2 11 5 8 10 6 16 -5 6 -10 7 -20 4 -23 -3 -4 0 -13 7
-21 9 -13 9 -14 0 -8 -9 5 -13 1 -13 -12 0 -10 -3 -22 -7 -26 -11 -11 -12 -36
-2 -36 6 0 7 -6 3 -12 -5 -9 -2 -9 9 1 14 11 17 11 17 0 0 -8 6 -5 14 7 16 22
16 38 0 69 -6 11 -10 27 -9 35 0 8 -4 18 -10 22 -6 5 -5 8 3 8 7 0 10 5 7 10
-4 6 -10 8 -15 5 -14 -9 -23 15 -11 29 6 7 8 15 6 18 -8 7 -14 43 -16 92 -1
22 -6 46 -10 51 -4 6 -7 12 -8 15 0 3 -3 13 -6 23 -4 9 -3 23 3 30 5 6 8 20 7
30 -2 9 1 15 5 12 21 -13 18 16 -5 43 -17 20 -22 33 -14 37 7 5 -3 21 -27 46
-27 28 -38 49 -41 76 -5 61 -6 63 -14 63 -5 0 -6 -15 -4 -32 l5 -33 -10 33
c-12 37 -22 43 -16 9z m59 -122 c-7 -21 -12 -19 -10 4 0 11 5 18 9 15 4 -3 5
-11 1 -19z m44 -132 c1 -24 0 -25 -6 -8 -7 17 -6 35 2 35 2 0 3 -12 4 -27z m7
-71 c3 -5 -1 -9 -9 -9 -8 0 -12 4 -9 9 3 4 7 8 9 8 2 0 6 -4 9 -8z m14 -79 c1
-41 7 -77 17 -92 3 -5 0 -13 -6 -17 -7 -4 -9 -3 -6 2 3 6 2 16 -4 24 -7 12 -9
9 -10 -10 l-1 -25 -7 25 c-5 14 -4 29 0 34 4 5 3 18 -2 29 -8 14 -8 18 1 12 8
-5 11 0 10 16 -3 28 -1 39 3 39 2 0 4 -17 5 -37z m5 -183 c3 -11 1 -18 -4 -14
-5 3 -9 12 -9 20 0 20 7 17 13 -6z m47 -55 c5 3 7 -3 5 -12 -2 -10 -4 -22 -4
-28 -1 -5 -6 -3 -11 5 -9 13 -10 13 -10 0 0 -13 -2 -13 -9 -1 -6 9 -5 21 2 33
7 10 13 14 15 8 2 -6 7 -8 12 -5z"/>
<path d="M4096 3912 c-3 -5 1 -9 9 -9 8 0 12 4 9 9 -3 4 -7 8 -9 8 -2 0 -6 -4
-9 -8z"/>
<path d="M3901 4504 c0 -11 3 -14 6 -6 3 7 2 16 -1 19 -3 4 -6 -2 -5 -13z"/>
<path d="M4331 4226 c-7 -8 -10 -20 -6 -26 9 -14 9 -110 1 -130 -4 -9 0 -24 7
-35 14 -18 15 -17 33 10 17 26 27 55 18 55 -2 0 -13 -17 -24 -37 -12 -22 -18
-28 -14 -14 4 16 3 21 -5 17 -7 -5 -8 -1 -4 9 5 14 8 14 15 3 7 -9 8 -8 4 5
-3 10 -2 27 4 36 5 10 6 22 2 25 -4 4 -7 25 -8 47 -1 46 -7 55 -23 35z m12
-11 c-3 -9 -8 -14 -10 -11 -3 3 -2 9 2 15 9 16 15 13 8 -4z m4 -97 c-3 -7 -5
-2 -5 12 0 14 2 19 5 13 2 -7 2 -19 0 -25z"/>
<path d="M4370 3994 c0 -8 5 -12 10 -9 6 4 8 11 5 16 -9 14 -15 11 -15 -7z"/>
<path d="M4333 3948 c1 -15 6 -23 11 -18 4 4 4 16 -2 26 -9 16 -10 14 -9 -8z"/>
<path d="M4366 3914 c-9 -23 -2 -28 13 -10 7 8 8 17 3 20 -6 3 -13 -1 -16 -10z"/>
<path d="M4219 3915 c-1 -3 -2 -8 -3 -12 -1 -5 -5 -13 -9 -20 -4 -6 -3 -15 3
-18 6 -4 10 -3 9 2 -1 4 0 10 1 13 5 13 8 40 4 40 -2 0 -5 -2 -5 -5z"/>
<path d="M4269 3918 c-7 -17 -4 -45 5 -45 14 0 18 34 5 42 -5 4 -10 5 -10 3z"/>
<path d="M4288 4173 c5 -10 7 -25 5 -33 -4 -13 -3 -13 6 -1 9 14 -2 51 -15 51
-2 0 -1 -8 4 -17z"/>
<path d="M3853 4604 c0 -17 2 -22 7 -13 5 6 6 18 3 26 -8 19 -10 16 -10 -13z"/>
<path d="M3847 4530 c-3 -11 -2 -22 2 -24 4 -3 8 6 9 20 2 29 -4 31 -11 4z"/>
<path d="M3863 4470 c-1 -11 2 -22 6 -24 4 -3 7 4 6 14 -2 27 -10 33 -12 10z"/>
<path d="M3846 4403 c-6 -14 -5 -15 5 -6 7 7 10 15 7 18 -3 3 -9 -2 -12 -12z"/>
<path d="M3897 4247 c-3 -8 1 -14 8 -14 7 0 11 6 8 14 -3 7 -6 13 -8 13 -2 0
-5 -6 -8 -13z"/>
<path d="M3903 4185 c0 -8 4 -12 9 -9 5 3 6 10 3 15 -9 13 -12 11 -12 -6z"/>
<path d="M3900 4126 c0 -2 8 -10 18 -17 15 -13 16 -12 3 4 -13 16 -21 21 -21
13z"/>
<path d="M3974 3953 c11 -13 16 -23 11 -23 -4 0 -2 -6 4 -14 8 -10 9 -16 1
-21 -5 -3 -10 -11 -10 -18 0 -6 6 -2 14 9 9 12 11 23 5 30 -5 6 -7 13 -4 16 3
3 -5 13 -17 24 l-23 19 19 -22z"/>
<path d="M4775 3414 c-11 -8 -19 -18 -18 -22 1 -4 -1 -9 -3 -11 -2 -2 -4 2 -4
10 0 12 -2 12 -9 -1 -13 -20 -2 -34 15 -19 8 6 14 8 14 4 0 -4 6 -2 14 4 8 7
14 21 13 32 -1 10 -1 19 -2 19 0 0 -9 -7 -20 -16z m6 -27 c-10 -9 -11 -8 -5 6
3 10 9 15 12 12 3 -3 0 -11 -7 -18z"/>
<path d="M4497 3371 c6 -7 9 -19 7 -25 -3 -7 4 -20 14 -29 17 -16 20 -16 32
-2 11 13 11 16 0 13 -9 -2 -15 6 -16 20 -1 24 -14 44 -14 22 0 -10 -3 -10 -17
1 -15 11 -16 11 -6 0z m29 -31 c0 -12 -4 -16 -9 -11 -5 5 -6 14 -3 20 10 15
12 14 12 -9z"/>
<path d="M4445 3338 c-15 -20 -23 -25 -18 -13 7 19 6 19 -11 2 -10 -10 -16
-21 -12 -24 3 -4 6 -3 6 2 0 4 7 2 15 -5 12 -10 15 -7 21 16 7 26 8 26 15 9 9
-20 9 -20 7 0 -2 11 1 26 5 33 16 24 -2 11 -28 -20z"/>
<path d="M3829 3333 c-13 -16 -12 -17 4 -4 16 13 21 21 13 21 -2 0 -10 -8 -17
-17z"/>
<path d="M4395 3340 c-4 -6 -10 -8 -15 -5 -4 3 -6 -5 -2 -17 4 -16 7 -18 10
-8 3 8 9 21 15 28 5 6 7 12 4 12 -3 0 -9 -5 -12 -10z"/>
<path d="M4175 3321 c-3 -5 -1 -12 5 -16 6 -4 7 -11 4 -17 -4 -6 -10 -5 -16 3
-8 11 -9 10 -4 -3 6 -20 -10 -25 -17 -5 -2 6 -2 1 0 -11 2 -13 0 -21 -4 -19
-5 3 -9 -6 -10 -21 -2 -24 -1 -24 6 -7 9 22 41 53 41 40 0 -4 7 -1 17 6 9 8
19 13 22 12 3 -1 10 8 14 20 4 12 5 18 1 14 -4 -4 -13 -2 -21 5 -8 6 -13 7
-11 2 2 -5 -1 -10 -7 -11 -5 -2 -9 2 -7 7 3 13 -5 13 -13 1z m45 -28 c0 -9 -3
-13 -7 -10 -3 4 -13 1 -22 -5 -10 -8 -9 -4 3 10 23 26 26 27 26 5z"/>
<path d="M3823 3293 c0 -9 4 -10 14 -2 7 6 13 12 13 14 0 1 -6 2 -13 2 -8 0
-14 -6 -14 -14z"/>
<path d="M3743 3136 c0 -8 6 -12 14 -9 7 3 10 9 7 14 -8 14 -21 11 -21 -5z"/>
<path d="M3810 2912 c0 -5 6 -16 13 -27 10 -12 16 -14 21 -7 4 7 2 12 -4 12
-6 0 -9 4 -6 9 3 5 -1 11 -9 15 -8 3 -15 2 -15 -2z"/>
<path d="M3410 1598 c3 -46 11 -92 18 -103 l14 -20 -8 20 c-5 11 -10 54 -12
96 l-3 75 91 1 c50 1 94 4 97 7 4 3 -41 6 -98 6 l-104 0 5 -82z"/>
<path d="M5600 1671 c0 -6 9 -8 21 -6 15 3 19 0 15 -11 -3 -9 -1 -12 4 -9 6 3
10 -1 10 -10 0 -13 -4 -14 -22 -5 -21 10 -21 9 2 -9 14 -11 21 -21 16 -21 -4
0 -2 -10 6 -22 8 -13 13 -29 12 -35 -1 -7 -2 -20 -3 -28 0 -8 -4 -14 -8 -14
-23 4 -32 -3 -27 -18 5 -15 4 -15 -4 -4 -16 23 -64 25 -79 5 -10 -14 -13 -14
-13 -3 0 12 -2 12 -10 -1 -7 -11 -10 -12 -10 -2 0 8 9 16 20 19 15 4 19 13 17
38 -1 18 -6 31 -10 28 -5 -3 -7 2 -5 10 2 9 -1 15 -7 14 -5 -1 -9 -5 -8 -9 1
-3 -5 -5 -15 -4 -10 2 -17 12 -17 24 0 11 -5 25 -9 29 -5 4 -6 2 -2 -4 4 -7 2
-13 -4 -13 -6 0 -9 -4 -6 -8 2 -4 0 -14 -5 -22 -6 -10 -8 -4 -4 20 3 19 2 31
-2 26 -4 -4 -11 -40 -14 -79 -9 -108 -39 -405 -47 -459 l-7 -48 -775 0 c-426
0 -780 0 -785 0 -6 0 -11 8 -12 18 -3 52 -25 291 -35 377 -7 68 -13 94 -19 80
-6 -15 -8 -10 -8 20 -1 23 -7 47 -13 54 -7 8 -8 11 -2 8 6 -3 11 0 11 7 0 15
-26 10 -28 -5 -1 -5 -2 -13 -3 -18 0 -5 -4 -13 -8 -17 -4 -3 -6 2 -3 14 4 22
-7 23 -42 4 -13 -7 -23 -19 -23 -27 0 -8 -5 -14 -12 -13 -7 2 -12 -2 -13 -9 0
-7 -6 -18 -12 -24 -7 -7 -13 -20 -13 -29 0 -12 -2 -12 -9 -1 -7 11 -10 11 -17
0 -9 -14 -10 -19 -12 -52 -1 -10 -5 -16 -10 -13 -4 2 -7 -13 -7 -35 0 -21 -2
-39 -5 -39 -3 0 -7 -12 -8 -27 -1 -15 -8 -30 -15 -35 -9 -6 -8 -8 3 -8 9 0 11
-3 5 -8 -5 -4 -12 -18 -13 -32 -2 -14 -8 -30 -13 -36 -5 -6 -10 -23 -11 -37
-2 -21 -5 -24 -17 -14 -12 10 -13 9 -4 -7 7 -12 7 -31 2 -49 -8 -29 -5 -41 15
-63 8 -8 14 -7 24 5 10 13 10 11 0 -12 -11 -27 -13 -27 -25 -11 -7 10 -13 14
-13 10 0 -11 38 -58 43 -54 3 2 14 -5 25 -15 20 -18 20 -18 17 0 -2 10 -4 23
-4 28 -1 6 -6 3 -11 -5 -9 -13 -10 -13 -10 0 0 13 -1 13 -10 0 -8 -12 -9 -10
-7 8 2 12 10 28 17 35 12 10 12 9 2 -5 -8 -10 -9 -19 -3 -22 5 -3 11 -1 13 6
2 6 12 -7 21 -30 20 -49 30 -56 17 -12 -5 17 -5 28 0 25 5 -3 11 -18 15 -34 9
-41 22 -49 78 -47 27 1 47 -2 47 -8 0 -7 3 -8 8 -1 4 6 13 11 21 13 12 3 12 1
0 -14 -9 -12 -9 -15 -1 -10 8 5 12 0 13 -13 2 -35 4 -40 15 -51 8 -8 11 -6 11
4 0 8 -5 12 -10 9 -6 -3 -7 -1 -4 5 7 11 32 11 43 0 3 -4 12 -4 20 -1 8 3 14
0 14 -7 0 -6 -4 -9 -9 -5 -5 3 -12 2 -15 -3 -2 -4 15 -8 39 -8 24 0 42 3 40 7
-9 13 16 77 32 83 13 5 14 4 4 -8 -9 -11 -9 -16 0 -22 8 -5 9 -3 4 6 -6 10 -4
12 8 7 10 -4 20 0 26 11 6 9 11 12 11 5 0 -11 9 -11 49 -1 11 2 16 -8 18 -36
4 -45 20 -69 37 -59 6 4 33 8 60 8 47 0 50 1 53 29 2 17 9 37 14 45 9 13 9 12
5 -4 -6 -19 -5 -19 8 -2 10 14 15 15 19 5 4 -10 6 -10 6 1 1 11 5 10 15 -5 14
-18 15 -18 22 -1 5 15 9 16 15 5 7 -10 9 -10 9 1 0 11 4 9 15 -5 15 -19 15
-19 9 1 -5 17 -4 17 5 4 6 -9 12 -30 13 -47 2 -23 6 -29 20 -27 10 2 20 -1 23
-6 8 -12 25 -2 25 14 0 8 -3 8 -9 -1 -7 -11 -9 -11 -14 1 -7 19 21 16 34 -4 7
-11 9 -10 10 6 0 19 1 19 8 1 7 -19 8 -19 15 0 7 18 8 19 21 0 14 -18 14 -18
14 0 0 11 2 28 5 39 2 11 5 25 6 30 1 6 5 1 10 -10 l9 -20 0 20 c1 17 3 17 11
5 9 -13 10 -13 10 0 0 13 1 13 10 0 8 -13 10 -13 10 -1 0 11 4 9 14 -5 14 -18
15 -18 21 -1 7 17 8 17 21 0 13 -17 14 -17 7 2 -3 11 -3 17 2 13 4 -4 11 -25
14 -45 4 -21 10 -36 15 -35 5 2 13 -2 17 -10 5 -7 9 -8 9 -3 0 6 22 11 52 10
54 0 55 1 61 60 2 18 9 20 70 21 72 0 75 -2 80 -63 0 -13 5 -23 10 -23 5 0 7
6 4 14 -4 9 0 13 11 12 9 -2 18 -9 20 -17 3 -11 1 -11 -7 1 -7 9 -11 10 -11 3
0 -23 20 -24 29 -1 8 18 10 19 10 5 1 -10 5 -16 10 -12 5 3 13 1 16 -5 5 -8
12 -7 22 2 9 7 19 13 22 13 3 0 7 6 8 13 2 6 5 20 7 30 3 9 5 22 6 27 1 6 5 1
10 -10 l9 -20 0 20 c1 17 3 17 11 5 6 -10 10 -11 10 -2 0 6 5 12 11 12 5 0 8
-4 4 -9 -3 -5 -1 -12 4 -15 5 -4 13 -1 17 5 4 8 3 9 -4 5 -8 -5 -10 -1 -5 9 3
9 9 13 12 8 7 -11 22 -10 40 1 10 6 12 5 7 -2 -4 -7 -3 -12 2 -12 5 0 9 -6 10
-12 3 -40 10 -69 17 -76 4 -4 5 -1 1 6 -4 6 -2 12 4 12 6 0 9 4 6 8 -3 5 7 8
22 7 15 -1 32 2 39 7 7 5 14 5 18 -2 3 -6 11 -7 17 -4 7 5 9 1 5 -9 -3 -9 1
-21 11 -28 14 -11 15 -11 5 1 -8 8 -9 19 -3 30 5 9 11 29 13 45 3 29 4 29 71
29 52 1 70 5 80 19 15 19 31 24 20 5 -4 -7 -3 -8 5 -4 9 6 9 12 -1 24 -7 10
-8 14 -3 9 4 -4 17 1 28 10 14 13 18 14 12 3 -5 -8 -10 -24 -12 -35 -1 -11 1
-14 3 -7 3 6 9 10 14 7 4 -3 7 3 6 12 0 9 6 18 14 20 13 4 13 3 0 -6 -11 -8
-12 -11 -2 -11 8 0 10 -5 6 -12 -4 -7 2 -4 14 6 12 11 22 24 22 30 0 6 -5 4
-10 -4 -5 -8 -10 -10 -11 -5 0 6 -2 18 -4 28 -3 17 -2 17 14 3 10 -9 20 -13
24 -10 8 9 3 -19 -7 -35 -6 -10 -5 -12 2 -7 8 5 12 0 12 -13 0 -19 -5 -20 -71
-18 -58 3 -72 0 -79 -13 -6 -12 -5 -24 5 -36 10 -15 11 -22 2 -33 -10 -12 -9
-13 1 -7 7 4 18 18 23 30 9 19 9 18 6 -6 -2 -15 0 -25 4 -22 5 3 9 14 9 24 0
10 4 21 9 24 5 4 7 -2 4 -13 -3 -10 0 -22 6 -25 6 -4 9 -1 5 7 -3 8 0 18 5 22
6 3 9 10 7 14 -3 4 1 8 9 8 13 0 13 -3 -1 -18 -12 -14 -13 -18 -2 -25 7 -4 10
-4 6 1 -11 11 29 38 44 29 7 -5 9 -2 5 8 -7 20 11 38 31 31 8 -4 21 2 30 13
12 16 14 16 9 2 -4 -10 -2 -18 3 -18 6 0 10 8 11 18 0 15 2 14 10 -3 8 -17 9
-16 6 7 -2 15 0 25 4 22 5 -3 9 1 9 8 1 7 8 2 16 -12 8 -14 13 -18 10 -8 -2 9
-2 19 2 22 3 4 7 16 9 27 2 14 -1 18 -9 13 -10 -6 -11 -4 0 7 18 20 15 34 -5
18 -11 -10 -14 -10 -9 -1 5 8 -1 12 -22 12 -49 0 -57 19 -44 113 7 45 14 136
18 202 3 66 8 131 11 145 3 14 8 62 12 108 l6 82 -102 0 c-58 0 -103 -4 -103
-9z m159 -156 c0 -79 2 -149 7 -156 4 -7 3 -10 -3 -6 -10 7 -12 -9 -16 -129
-1 -41 -6 -71 -12 -71 -6 0 -10 12 -10 26 1 14 -4 32 -9 40 -9 12 -7 13 9 8
19 -7 19 -6 3 7 -10 7 -18 25 -18 39 0 21 4 25 18 21 14 -5 15 -4 2 5 -11 8
-18 6 -28 -7 -12 -15 -13 -13 -12 18 3 50 1 62 -8 56 -5 -3 -9 0 -10 7 -5 46
-12 71 -21 80 -14 14 -15 50 -1 42 5 -3 6 -13 3 -23 -3 -9 -3 -14 1 -11 6 6
10 21 20 74 1 6 5 15 9 22 7 11 -7 63 -18 63 -2 0 0 -12 6 -26 11 -31 5 -45
-8 -17 -7 13 -10 88 -4 88 1 0 24 -2 51 -3 l51 -4 -2 -143z m18 93 c-2 -13 -4
-3 -4 22 0 25 2 35 4 23 2 -13 2 -33 0 -45z m-2094 -38 c-3 -12 -8 -19 -11
-16 -5 6 5 36 12 36 2 0 2 -9 -1 -20z m-26 -22 c-3 -8 -6 -5 -6 6 -1 11 2 17
5 13 3 -3 4 -12 1 -19z m33 -60 c0 -5 5 -6 12 -2 7 4 8 3 4 -4 -4 -6 -14 -8
-23 -5 -12 5 -14 3 -8 -7 5 -9 4 -11 -4 -6 -6 4 -8 12 -5 18 5 7 2 8 -5 4 -7
-5 -10 -14 -7 -21 5 -14 -39 -61 -46 -48 -2 4 -6 25 -7 46 l-3 38 46 -2 c25
-2 46 -7 46 -11z m-139 -161 c-10 -9 -11 -8 -5 6 3 10 9 15 12 12 3 -3 0 -11
-7 -18z m2106 1 c-3 -8 -6 -5 -6 6 -1 11 2 17 5 13 3 -3 4 -12 1 -19z m-2120
-50 c-3 -7 -5 -2 -5 12 0 14 2 19 5 13 2 -7 2 -19 0 -25z m2141 -3 c-3 -3 -9
2 -12 12 -6 14 -5 15 5 6 7 -7 10 -15 7 -18z m-2161 -67 c-3 -8 -6 -5 -6 6 -1
11 2 17 5 13 3 -3 4 -12 1 -19z m2210 -145 c-3 -10 -5 -4 -5 12 0 17 2 24 5
18 2 -7 2 -21 0 -30z m104 -90 c13 -16 12 -17 -3 -4 -10 7 -18 15 -18 17 0 8
8 3 21 -13z m-1749 -152 c8 11 9 11 6 1 -4 -16 -22 -18 -24 -3 -2 8 -1 7 3 0
4 -8 8 -7 15 2z m62 -2 c3 -3 -5 -5 -19 -5 -13 0 -22 3 -19 7 4 8 30 6 38 -2z
m580 0 c3 -2 -10 -5 -29 -5 -18 0 -32 3 -30 7 5 7 52 6 59 -2z m60 3 c3 -5 -1
-9 -9 -9 -8 0 -12 4 -9 9 3 4 7 8 9 8 2 0 6 -4 9 -8z m301 -5 c3 -4 2 -5 -2
-2 -3 3 -12 0 -18 -5 -9 -7 -16 -6 -24 3 -9 11 -6 14 14 13 13 -1 27 -5 30 -9z"/>
<path d="M5670 1649 c0 -3 7 -21 16 -39 13 -26 14 -39 5 -69 -14 -47 -21 -112
-11 -106 10 6 22 -24 15 -36 -3 -4 1 -21 9 -37 8 -16 12 -33 8 -38 -4 -5 0 -3
9 4 9 6 18 10 20 8 2 -3 5 67 5 155 1 151 0 159 -19 159 -14 0 -17 -5 -13 -17
5 -15 4 -15 -9 1 -11 14 -15 16 -15 5 0 -12 -2 -12 -10 1 -5 8 -10 12 -10 9z
m65 -151 c-3 -173 -2 -170 -21 -135 -8 15 -12 32 -9 37 3 5 0 20 -6 32 -14 26
-13 70 3 110 7 19 7 36 -1 58 -5 17 -6 28 -1 25 13 -8 23 -71 14 -87 -5 -7 -9
-26 -10 -43 -1 -16 0 -24 3 -17 3 6 10 9 15 6 7 -5 8 -2 2 7 -11 19 -14 40 -4
34 5 -3 7 22 6 55 -2 33 0 60 4 60 3 0 6 -64 5 -142z"/>
<path d="M5715 1460 c-4 -6 -12 -7 -18 -3 -8 4 -7 1 1 -9 7 -9 17 -29 22 -45
7 -23 8 -20 6 19 -1 52 -2 53 -11 38z"/>
<path d="M5726 1267 c3 -10 9 -15 12 -12 3 3 0 11 -7 18 -10 9 -11 8 -5 -6z"/>
<path d="M3625 1463 c-16 -36 -14 -45 5 -28 10 9 16 23 13 31 -7 18 -9 18 -18
-3z"/>
<path d="M5495 1599 c-4 -6 -5 -12 -2 -15 2 -3 7 2 10 11 7 17 1 20 -8 4z"/>
<path d="M3436 1395 c2 -44 3 -112 3 -152 0 -39 4 -74 8 -76 10 -6 7 111 -6
228 l-9 80 4 -80z"/>
<path d="M3439 1035 c-3 -2 -23 -7 -45 -10 -59 -9 -72 -14 -78 -32 -6 -13 -4
-14 9 -3 14 12 15 10 11 -13 -4 -21 -1 -25 15 -22 12 2 19 -2 19 -11 0 -8 -4
-12 -10 -9 -14 9 -12 -1 3 -13 10 -8 13 -5 15 16 4 44 18 44 15 -1 -2 -32 -1
-36 5 -17 8 24 8 24 14 4 5 -21 34 -29 36 -10 7 86 3 134 -9 121z m-77 -44
c-5 -14 -4 -14 14 -1 19 14 19 14 0 -8 -11 -12 -22 -20 -24 -17 -11 11 -8 42
4 42 7 0 10 -7 6 -16z"/>
<path d="M5810 926 c0 -8 4 -17 9 -20 5 -4 7 3 4 14 -6 23 -13 26 -13 6z"/>
<path d="M3456 883 c-3 -8 -1 -11 4 -8 18 11 51 14 45 4 -4 -5 -10 -7 -15 -4
-5 3 -12 0 -16 -6 -4 -8 -3 -9 4 -5 7 4 12 2 12 -4 0 -7 7 -5 16 4 21 21 30
20 13 -1 -13 -17 -13 -17 13 0 16 10 29 13 33 7 6 -9 -1 -14 -17 -12 -3 1 -12
-6 -20 -16 -12 -15 -11 -16 5 -3 16 12 22 9 18 -12 -1 -5 3 -6 9 -2 6 3 8 11
5 16 -4 5 3 9 14 9 16 0 21 6 21 26 0 25 -1 25 -70 23 -48 -1 -71 -6 -74 -16z"/>
<path d="M4030 881 c0 -7 -5 -9 -12 -5 -7 5 -8 3 -3 -5 5 -9 10 -10 18 -2 6 6
8 14 4 18 -4 3 -7 1 -7 -6z"/>
<path d="M3970 875 c0 -2 6 -8 13 -14 10 -8 14 -7 14 2 0 8 -6 14 -14 14 -7 0
-13 -1 -13 -2z"/>
<path d="M4846 868 c3 -5 10 -6 15 -3 13 9 11 12 -6 12 -8 0 -12 -4 -9 -9z"/>
<path d="M5206 868 c3 -5 10 -6 15 -3 13 9 11 12 -6 12 -8 0 -12 -4 -9 -9z"/>
<path d="M5666 843 c-6 -14 -5 -15 5 -6 7 7 10 15 7 18 -3 3 -9 -2 -12 -12z"/>
<path d="M3791 814 c0 -11 3 -14 6 -6 3 7 2 16 -1 19 -3 4 -6 -2 -5 -13z"/>
<path d="M5330 808 c-10 -21 -10 -22 3 -5 11 14 16 15 20 5 4 -9 6 -9 6 -1 2
23 -18 23 -29 1z"/>
<path d="M5287 807 c-3 -8 1 -14 8 -14 7 0 11 6 8 14 -3 7 -6 13 -8 13 -2 0
-5 -6 -8 -13z"/>
</g>
</svg>
